<?xml version="1.0" encoding="utf-8"?>
<!DOCTYPE svg PUBLIC "-//W3C//DTD SVG 1.0//EN" "http://www.w3.org/TR/2001/REC-SVG-20010904/DTD/svg10.dtd">

<svg version="1.0" xmlns="http://www.w3.org/2000/svg" width="1364.000000pt" height="3000.000000pt" viewBox="0 0 1364.000000 3000.000000" preserveAspectRatio="xMidYMid meet">
  <g transform="translate(0.000000,3000.000000) scale(0.100000,-0.100000)" fill="#000000" stroke="none">
  <path d="M8133 29980 c-417 -53 -842 -252 -1128 -530 l-80 -77 -150 12 c-114
9 -198 23 -350 59 -255 61 -329 91 -484 194 -134 88 -227 126 -297 120 -36 -3
-39 -6 -42 -35 -5 -54 18 -127 217 -669 222 -608 225 -619 225 -899 0 -218
-16 -370 -75 -715 l-40 -235 11 -190 c6 -104 20 -262 32 -350 13 -104 20 -218
20 -325 0 -547 -195 -850 -627 -975 -49 -14 -188 -44 -307 -66 -120 -21 -264
-50 -320 -64 -57 -13 -125 -27 -153 -31 -27 -4 -83 -22 -123 -41 -39 -19 -167
-66 -284 -104 -229 -76 -361 -136 -448 -203 -30 -24 -66 -47 -80 -51 -14 -4
-65 -27 -115 -50 -76 -37 -111 -62 -225 -167 -541 -498 -895 -1037 -1109
-1690 -161 -495 -219 -958 -208 -1668 6 -372 20 -559 67 -865 42 -272 50 -392
50 -730 0 -341 13 -570 40 -732 11 -61 40 -264 64 -450 44 -330 49 -353 191
-953 159 -678 178 -748 270 -1025 162 -491 335 -842 481 -974 84 -76 124 -114
121 -117 -1 -1 -400 -7 -887 -13 -487 -6 -975 -14 -1086 -17 l-201 -6 -36
-102 c-124 -341 -139 -700 -45 -1061 11 -44 23 -83 27 -87 3 -4 176 -54 384
-112 209 -57 381 -107 384 -110 3 -3 -16 -35 -41 -71 -75 -104 -108 -184 -110
-263 0 -37 2 -79 6 -93 l8 -27 109 6 109 5 7 -79 c4 -44 9 -87 11 -96 4 -13
-1 -18 -18 -18 -69 -2 -361 -39 -369 -47 -27 -27 -86 -315 -118 -581 -63 -504
-49 -918 35 -1073 48 -88 91 -119 456 -329 70 -41 135 -88 173 -125 60 -59 61
-61 57 -108 -2 -26 -1 -68 3 -93 9 -60 37 -74 150 -74 l86 0 23 -52 c93 -213
112 -689 45 -1153 -36 -250 -96 -457 -145 -502 -30 -28 -54 -28 -164 -3 -119
27 -122 27 -149 -24 -27 -49 -25 -89 10 -137 l20 -29 -23 0 c-45 0 -1664 -80
-1735 -86 l-71 -6 -26 -81 c-53 -169 -119 -567 -146 -887 -8 -92 -10 -267 -6
-550 9 -586 9 -584 1 -796 -8 -190 -7 -191 17 -235 32 -57 84 -86 201 -109
137 -28 319 -40 618 -40 l268 0 11 -38 c34 -123 42 -208 37 -387 -7 -243 -28
-339 -183 -858 l-38 -129 -34 6 c-18 3 -55 19 -81 36 -26 16 -60 30 -75 30
-29 0 -35 -10 -63 -112 l-16 -58 39 -57 c92 -133 228 -247 517 -430 184 -117
309 -206 382 -272 l40 -36 -81 -96 c-174 -207 -448 -588 -510 -711 -48 -94
-55 -153 -64 -498 -5 -191 -15 -370 -24 -435 -55 -383 -41 -1009 34 -1595 20
-149 55 -366 66 -402 7 -23 82 -46 210 -63 94 -13 913 -15 6030 -15 l5922 0
16 40 c58 144 119 422 160 730 88 655 85 1364 -9 1795 -9 40 -20 172 -25 310
-16 372 -22 415 -69 511 -49 98 -122 179 -305 339 -74 64 -153 139 -177 167
-39 46 -40 51 -19 44 41 -11 233 -19 283 -12 89 14 135 80 181 261 57 228 80
487 73 837 -4 250 -6 272 -41 454 -20 105 -45 226 -56 270 -22 86 -78 210
-108 237 -11 11 -254 76 -642 172 -343 86 -625 157 -627 159 -5 5 26 433 38
536 16 135 23 982 10 1187 -13 201 -35 363 -56 424 -8 23 -15 44 -15 47 0 3
360 3 800 -1 l800 -5 29 35 c29 35 54 109 66 196 3 26 17 79 31 119 13 39 34
133 46 207 20 128 22 176 25 776 4 685 2 730 -48 916 -34 127 -40 133 -155
153 -55 9 -211 32 -349 51 -206 29 -280 35 -422 35 -95 0 -173 2 -173 4 0 2
18 41 39 87 63 135 123 368 151 589 18 141 24 434 11 565 -11 113 -40 276 -57
319 -7 18 -3 19 88 13 l96 -5 35 52 c147 222 194 447 152 731 -16 104 -77 371
-88 382 -4 3 -89 14 -189 24 -248 25 -385 45 -499 74 -98 24 -201 65 -212 82
-4 6 19 16 51 23 31 7 84 21 118 31 66 21 70 26 121 159 77 206 97 355 82 606
-5 93 -14 185 -19 204 -6 19 -10 67 -10 106 0 87 -21 159 -57 201 l-28 31
-507 48 c-279 27 -502 52 -495 56 8 5 6 8 -5 8 -21 0 -22 4 -8 30 5 10 14 58
20 106 24 214 -47 354 -223 438 -40 19 -155 63 -257 96 -359 119 -437 184
-587 485 -222 444 -471 1317 -567 1985 -27 188 -50 480 -40 512 3 10 0 178 -6
371 -10 306 -10 364 3 432 9 44 23 145 32 225 38 332 64 400 313 815 146 243
150 251 348 707 354 814 388 923 471 1508 89 631 82 732 -83 1274 -30 98 -86
303 -124 455 -174 691 -315 1100 -525 1526 -159 320 -199 383 -426 661 -135
166 -180 227 -226 311 -36 65 -38 72 -38 163 0 88 2 100 36 170 50 104 132
203 294 355 248 231 346 329 390 385 123 160 139 289 66 534 -28 94 -28 101
-14 140 25 67 20 231 -10 346 -49 186 -158 392 -267 501 -66 66 -100 79 -202
79 -86 0 -152 -14 -441 -88 -87 -23 -190 -44 -230 -48 -77 -6 -83 -5 -230 55
-43 18 -117 41 -165 52 -102 22 -332 32 -439 19z"/>
  </g>
</svg>
